<svg viewBox="0 0 13.3333 13.333" xmlns="http://www.w3.org/2000/svg" xmlns:xlink="http://www.w3.org/1999/xlink" width="13.333313" height="13.333008" fill="none" customFrame="#000000">
	<path id="Vector" d="M10.2266 2.30667C10.0684 2.30667 9.91371 2.35359 9.78215 2.44149C9.65059 2.5294 9.54805 2.65434 9.4875 2.80052C9.42695 2.9467 9.41111 3.10755 9.44198 3.26274C9.47285 3.41792 9.54904 3.56047 9.66092 3.67235C9.7728 3.78423 9.91535 3.86043 10.0705 3.89129C10.2257 3.92216 10.3866 3.90632 10.5328 3.84577C10.6789 3.78522 10.8039 3.68268 10.8918 3.55112C10.9797 3.41956 11.0266 3.26489 11.0266 3.10667C11.0266 2.89449 10.9423 2.69101 10.7923 2.54098C10.6423 2.39095 10.4388 2.30667 10.2266 2.30667ZM13.2933 3.92C13.2803 3.36687 13.1767 2.8196 12.9866 2.3C12.8171 1.85542 12.5533 1.45285 12.2133 1.12C11.8832 0.778284 11.4796 0.516118 11.0333 0.353333C10.515 0.157441 9.96717 0.0514733 9.41327 0.04C8.7066 -3.72529e-08 8.47994 0 6.6666 0C4.85327 0 4.62661 -3.72529e-08 3.91994 0.04C3.36604 0.0514733 2.81817 0.157441 2.29994 0.353333C1.85439 0.517766 1.45123 0.779707 1.11994 1.12C0.778223 1.45012 0.516057 1.85363 0.353272 2.3C0.157379 2.81823 0.0514123 3.3661 0.0399389 3.92C-6.10724e-05 4.62667 -6.10352e-05 4.85333 -6.10352e-05 6.66667C-6.10352e-05 8.48 -6.10724e-05 8.70667 0.0399389 9.41333C0.0514123 9.96723 0.157379 10.5151 0.353272 11.0333C0.516057 11.4797 0.778223 11.8832 1.11994 12.2133C1.45123 12.5536 1.85439 12.8156 2.29994 12.98C2.81817 13.1759 3.36604 13.2819 3.91994 13.2933C4.62661 13.3333 4.85327 13.3333 6.6666 13.3333C8.47994 13.3333 8.7066 13.3333 9.41327 13.2933C9.96717 13.2819 10.515 13.1759 11.0333 12.98C11.4796 12.8172 11.8832 12.555 12.2133 12.2133C12.5548 11.8817 12.8188 11.4788 12.9866 11.0333C13.1767 10.5137 13.2803 9.96647 13.2933 9.41333C13.2933 8.70667 13.3333 8.48 13.3333 6.66667C13.3333 4.85333 13.3333 4.62667 13.2933 3.92ZM12.0933 9.33333C12.0884 9.75651 12.0118 10.1758 11.8666 10.5733C11.7602 10.8635 11.5892 11.1256 11.3666 11.34C11.1504 11.5603 10.8888 11.731 10.5999 11.84C10.2024 11.9852 9.78312 12.0618 9.35994 12.0667C8.69327 12.1 8.4466 12.1067 6.69327 12.1067C4.93994 12.1067 4.69327 12.1067 4.02661 12.0667C3.5872 12.0749 3.14967 12.0072 2.73327 11.8667C2.45713 11.7521 2.20751 11.5819 1.99994 11.3667C1.77866 11.1525 1.60983 10.8901 1.50661 10.6C1.34384 10.1968 1.25357 9.76796 1.23994 9.33333C1.23994 8.66667 1.19994 8.42 1.19994 6.66667C1.19994 4.91333 1.19994 4.66667 1.23994 4C1.24293 3.56737 1.32191 3.13863 1.47327 2.73333C1.59064 2.45194 1.77078 2.20111 1.99994 2C2.20248 1.77078 2.4528 1.58873 2.73327 1.46667C3.13964 1.32003 3.56794 1.24339 3.99994 1.24C4.66661 1.24 4.91327 1.2 6.6666 1.2C8.41994 1.2 8.6666 1.2 9.33327 1.24C9.75645 1.24485 10.1757 1.3215 10.5733 1.46667C10.8762 1.5791 11.1481 1.7619 11.3666 2C11.5851 2.20479 11.7558 2.45515 11.8666 2.73333C12.0148 3.13929 12.0915 3.56785 12.0933 4C12.1266 4.66667 12.1333 4.91333 12.1333 6.66667C12.1333 8.42 12.1266 8.66667 12.0933 9.33333ZM6.6666 3.24667C5.99048 3.24798 5.32991 3.44968 4.76837 3.82628C4.20684 4.20287 3.76952 4.73746 3.51169 5.3625C3.25387 5.98754 3.18709 6.67498 3.3198 7.33795C3.45251 8.00093 3.77876 8.60969 4.25732 9.08732C4.73588 9.56495 5.34528 9.89001 6.00851 10.0214C6.67174 10.1529 7.35905 10.0847 7.98358 9.82569C8.60812 9.56664 9.14186 9.12829 9.51736 8.56602C9.89286 8.00375 10.0933 7.34279 10.0933 6.66667C10.0942 6.21674 10.0061 5.77107 9.8341 5.3553C9.66212 4.93954 9.40964 4.56187 9.09118 4.24403C8.77273 3.92619 8.39457 3.67445 7.97847 3.50329C7.56237 3.33212 7.11653 3.24491 6.6666 3.24667ZM6.6666 8.88667C6.22753 8.88667 5.79832 8.75646 5.43324 8.51253C5.06816 8.26859 4.78362 7.92188 4.61559 7.51622C4.44757 7.11057 4.4036 6.6642 4.48926 6.23357C4.57492 5.80293 4.78636 5.40736 5.09683 5.09689C5.4073 4.78642 5.80287 4.57498 6.2335 4.48932C6.66414 4.40366 7.11051 4.44763 7.51616 4.61565C7.92181 4.78368 8.26853 5.06822 8.51247 5.4333C8.7564 5.79838 8.88661 6.22759 8.88661 6.66667C8.88661 6.9582 8.82918 7.24688 8.71762 7.51622C8.60605 7.78557 8.44253 8.0303 8.23638 8.23644C8.03024 8.44259 7.78551 8.60611 7.51616 8.71768C7.24682 8.82924 6.95814 8.88667 6.6666 8.88667Z" fill="rgb(255,255,255)" fill-rule="nonzero" />
</svg>
