<svg viewBox="0 0 13.3333 10.667" xmlns="http://www.w3.org/2000/svg" xmlns:xlink="http://www.w3.org/1999/xlink" width="13.333344" height="10.666992" fill="none" customFrame="#000000">
	<path id="Vector" d="M8.59336 4.32L6.59336 3.16C6.41568 3.05502 6.21308 2.99964 6.0067 2.99964C5.80032 2.99964 5.59772 3.05502 5.42003 3.16C5.24098 3.26093 5.09256 3.40839 4.99045 3.58678C4.88835 3.76516 4.83638 3.96783 4.84003 4.17333L4.84003 6.49333C4.83638 6.69884 4.88835 6.90151 4.99045 7.07989C5.09256 7.25827 5.24098 7.40573 5.42003 7.50667C5.59772 7.61165 5.80032 7.66702 6.0067 7.66702C6.21308 7.66702 6.41568 7.61165 6.59336 7.50667L8.59336 6.34667C8.76434 6.24172 8.90556 6.09469 9.00353 5.91962C9.10149 5.74455 9.15293 5.54728 9.15293 5.34667C9.15293 5.14605 9.10149 4.94878 9.00353 4.77371C8.90556 4.59864 8.76434 4.45161 8.59336 4.34667L8.59336 4.32ZM6.16003 6.21333L6.16003 4.45333L7.68003 5.33333L6.16003 6.21333ZM11.3334 0L2.00003 0C1.4696 0 0.96089 0.210714 0.585817 0.585787C0.210744 0.960859 3.05176e-05 1.46957 3.05176e-05 2L3.05176e-05 8.66667C3.05176e-05 9.1971 0.210744 9.70581 0.585817 10.0809C0.96089 10.456 1.4696 10.6667 2.00003 10.6667L11.3334 10.6667C11.8638 10.6667 12.3725 10.456 12.7476 10.0809C13.1226 9.70581 13.3334 9.1971 13.3334 8.66667L13.3334 2C13.3334 1.46957 13.1226 0.960859 12.7476 0.585787C12.3725 0.210714 11.8638 5.92119e-16 11.3334 0ZM12 8.66667C12 8.84348 11.9298 9.01305 11.8048 9.13807C11.6797 9.2631 11.5102 9.33333 11.3334 9.33333L2.00003 9.33333C1.82322 9.33333 1.65365 9.2631 1.52863 9.13807C1.4036 9.01305 1.33336 8.84348 1.33336 8.66667L1.33336 2C1.33336 1.82319 1.4036 1.65362 1.52863 1.5286C1.65365 1.40357 1.82322 1.33333 2.00003 1.33333L11.3334 1.33333C11.5102 1.33333 11.6797 1.40357 11.8048 1.5286C11.9298 1.65362 12 1.82319 12 2L12 8.66667Z" fill="rgb(255,255,255)" fill-rule="nonzero" />
</svg>
