<svg viewBox="0 0 560.622 37.2321" xmlns="http://www.w3.org/2000/svg" xmlns:xlink="http://www.w3.org/1999/xlink" width="560.621887" height="37.232086" fill="none" customFrame="#000000">
	<defs>
		<linearGradient id="paint_linear_0" x1="280.501038" x2="280.501038" y1="0.501037598" y2="36.722187" gradientUnits="userSpaceOnUse">
			<stop stop-color="rgb(255,255,255)" offset="0" stop-opacity="0" />
			<stop stop-color="rgb(255,255,255)" offset="1" stop-opacity="1" />
		</linearGradient>
	</defs>
	<path id="Line" d="M0.668413 0.0298841C10.8506 3.64706 22.62 7.15535 35.9767 10.5548C50.7009 14.3023 66.5479 17.7057 83.5177 20.7652C123.393 27.9543 165.763 32.6498 210.627 34.8516C264.014 37.4714 318.032 36.3615 372.681 31.5217C436.014 25.9126 498.581 15.4106 560.38 0.0158648L560.622 0.98621C498.776 16.3936 436.158 26.9041 372.769 32.5178C318.075 37.3621 264.011 38.473 210.578 35.8504C165.671 33.6466 123.258 28.9463 83.3403 21.7494C66.3473 18.6857 50.4772 15.2772 35.73 11.5239C22.3436 8.11688 10.5448 4.59965 0.333663 0.972191L0.668413 0.0298841ZM0.359204 0.96004L0.333663 0.972191C0.0698166 0.878461 -0.0638459 0.597508 0.0298841 0.333663C0.123614 0.0698166 0.404567 -0.0638459 0.668413 0.0298841L0.680564 0.0554253L0.359204 0.96004Z" fill="url(#paint_linear_0)" fill-rule="nonzero" />
</svg>
